<svg xmlns="http://www.w3.org/2000/svg" viewBox="0 0 400 400" width="400" height="400"> <defs> <radialGradient id="bg" cx="50%" cy="50%" r="50%"> <stop offset="0%" stop-color="#1aa52e"/> <stop offset="100%" stop-color="#0f1f1a"/> </radialGradient> <filter id="glow"> <feGaussianBlur stdDev="3" result="coloredBlur"/> <feMeRgeNode in="coloredBlur"/> <feMergeNode in="SourceGraphic"/> </feMerge> </filter> <linearGradient id="saber" x1="0%" y1="0%" x2="100%" y2="100%"> <stop offset="0%" stop-color="#00d4ff"/> <stop offset="50%" stop-color="#00ff7"/> <stop offset="100%" stop-color="#00d4ff"/> </linearGradient> </defs> <circle cx="200" cy="200" r="195" fill="url(#bg)" stroke="#1e3a5f" stroke-width="3"/> <circle cx="45" cy="70" r="1.5" fill="#fff" opacity="0.7"/> <circle cx="330" cy="55" r="1" fill="#fff" opacity="0.9"/> <circle cx="90" cy="310" r="1" fill="#fff" opacity="0.5"/> <circle cx="355" cy="290" r="1.2" fill="#fff" opacity="0.8"/> <circle cx="290" cy="355" r="1" fill="#fff" opacity="0.6"/> <circle cx="55" cy="190" r="0.8" fill="#fff" opacity="0.4"/> <circle cx="375" cy="160" r="1" fill="#fff" opacity="0.5"/> <circle cx="140" cy="45" r="1.2" fill="#fff" opacity="0.7"/> <circle cx="25" cy="260" r="1" fill="#fff" opacity="0.6"/> <circle cx="365" cy="100" r="0.8" fill="#fff" opacity="0.5"/> <path d="M200 130 L275 370 L200 340 L125 370 Z" fill="#0d1117" stroke="#30363d" stroke-width="1.5"/> <path d="M150 130 Q200 65 250 130 Q250 100 200 75 Q5150 100 150 130" fill="#161b22" stroke="#30363d" stroke-width="1"/> <ellipse cx="200" cy="115" rx="32" ry="35" fill="#0d1117"/> <rect x="194" y="145" width="12" height="195" rx="6" fill="url(#saber)" filter="url(#glow)" opacity="0.95"/> <rect x="188" y="138" width="24" height="18" rx="3" fill="#8b949e"/> <rect x="185" y="152" width="30" height="6" rx="2" fill="#6e7681"/> <ellipse cx="200" cy="340" rx="20" ry="6" fill="#00fff7" opacity="0.25"/> </svg>